inDegrees=yes
name=ik_MT_01200627-Y006-000_orientations_updatedTime
DataType=double
version=3
OpenSimVersion=4.5-2024-07-10-f38669b70
endheader
time	pelvis_tilt	pelvis_list	pelvis_rotation	pelvis_tx	pelvis_ty	pelvis_tz	hip_flexion_r	hip_adduction_r	hip_rotation_r	knee_angle_r	knee_angle_r_beta	ankle_angle_r	subtalar_angle_r	mtp_angle_r	hip_flexion_l	hip_adduction_l	hip_rotation_l	knee_angle_l	knee_angle_l_beta	ankle_angle_l	subtalar_angle_l	mtp_angle_l	lumbar_extension	lumbar_bending	lumbar_rotation	arm_flex_r	arm_add_r	arm_rot_r	elbow_flex_r	pro_sup_r	wrist_flex_r	wrist_dev_r	arm_flex_l	arm_add_l	arm_rot_l	elbow_flex_l	pro_sup_l	wrist_flex_l	wrist_dev_l
1748433532.365953	-2.477873865024466	-0.3726909771017605	-167.1265796491212	0	0.9399999943917833	0	79.99999999525214	-7.000000001125469	0	79.99999999792263	1.396263401559207	0	0	0	79.99999999525214	-7.000000004501878	0	79.99999999802388	1.396263401560974	0	0	0	-6.680803944953436	0.8865554907841455	-1.827684572690249	38.46720794958393	-9.600449581583945	31.75401875913546	14.56180057020662	89.92518946504154	-63.20598281318014	-24.99161403843413	39.93246566370326	-36.00665036239535	31.02480707317048	34.9298440901331	66.72302781041631	-11.71134232037649	-24.98430168894185
1748433532.375953	-2.447814903050063	-0.3369150580352334	-167.1135563589462	0	0.9399999943917833	0	79.99999999525214	-7.000000001125469	0	79.99999999792263	1.396263401559207	0	0	0	79.99999999525214	-7.000000004501878	0	79.99999999802388	1.396263401560974	0	0	0	-6.676802790130528	0.9104807816230873	-1.844178873716051	38.7916853514105	-10.22734821461493	33.26948055224379	15.54658358728902	89.94216019576174	-62.57114808599201	-24.99174808811867	40.01812520007463	-36.44981779058723	31.87835451726314	35.94968683203212	68.12498247884531	-10.90278382251227	-24.98410810797185
1748433532.385953	-2.467203332209009	-0.3398413121257191	-167.11036861977	0	0.9399999943917833	0	79.99999999525214	-7.000000001125469	0	79.99999999792263	1.396263401559207	0	0	0	79.99999999525214	-7.000000004501878	0	79.99999999802388	1.396263401560974	0	0	0	-6.728531795842428	0.9575345914388029	-1.831486440640151	39.17820870083197	-11.01648677213071	34.85222351338121	16.6089430337017	89.95313975748367	-61.7278087512534	-24.99186524309014	40.05353637810143	-36.89496217393056	32.72684196176581	37.06163281520062	69.41442600753327	-9.88968638526158	-24.98389092456683
1748433532.395953	-2.421649610786711	-0.302559043020794	-167.0955169052508	0	0.9399999943917833	0	79.99999999525214	-7.000000001125469	0	79.99999999792263	1.396263401559207	0	0	0	79.99999999525214	-7.000000004501878	0	79.99999999802388	1.396263401560974	0	0	0	-6.7112382316921	0.9448537720811446	-1.81998891057042	39.59503037986538	-11.69726597624205	36.43633327389471	17.55630870408078	89.9608579047211	-60.99525388547363	-24.99199033463848	40.22581336245202	-37.41998414939084	33.76672667005485	38.16688546699115	70.5645152673434	-8.672151031682947	-24.98368320958109
1748433532.405953	-2.447102016493142	-0.3240416530535398	-167.1073328884148	0	0.9399999943917833	0	79.99999999525214	-7.000000001125469	0	79.99999999792263	1.396263401559207	0	0	0	79.99999999525214	-7.000000004501878	0	79.99999999802388	1.396263401560974	0	0	0	-6.781512944221592	0.942730903424257	-1.793720092189886	40.0423975741016	-12.49468543151184	38.13243671747122	18.51392953951974	89.96625552040176	-60.28655313780975	-24.99210411244037	40.32519627687482	-37.91534906669851	34.68837459502659	39.35549661505168	71.76989002068882	-7.535174501975047	-24.98338918732006
1748433532.415953	-2.460930940768713	-0.3245816404205273	-167.1081685192453	0	0.9399999943917833	0	79.99999999525214	-7.000000001125469	0	79.99999999792263	1.396263401559207	0	0	0	79.99999999525214	-7.000000004501878	0	79.99999999802388	1.396263401560974	0	0	0	-6.836893059931556	0.9445671914803314	-1.767188522524074	40.55835855439939	-13.28785128678	39.88158195066382	19.40559391458708	89.97028439078933	-59.73004292430764	-24.99223059716779	40.39181778314894	-38.41679841425528	35.52713945046293	40.62455431233343	73.09059246878634	-6.625403000159042	-24.98319376018017
1748433532.425953	-2.507755171791212	-0.3293838998116634	-167.106118243494	0	0.9399999943917833	0	79.99999999525214	-7.000000001125469	0	79.99999999792263	1.396263401559207	0	0	0	79.99999999525214	-7.000000004501878	0	79.99999999802388	1.396263401560974	0	0	0	-6.91385509196356	1.007198313976126	-1.776468167380317	41.16406681083592	-14.15010556104743	41.78399339948175	20.31203682179957	89.97338467414572	-59.1337429036026	-24.99235266837996	40.32611703887154	-38.87843514227676	36.1343568359223	42.01247117705079	74.58002796855686	-6.137215963533757	-24.98314516464975
1748433532.435953	-2.475485536820804	-0.3235859173743472	-167.0991357168822	0	0.9399999943917833	0	79.99999999525214	-7.000000001125469	0	79.99999999792263	1.396263401559207	0	0	0	79.99999999525214	-7.000000004501878	0	79.99999999802388	1.396263401560974	0	0	0	-6.906371883761755	0.9692824761676342	-1.765784377620522	41.81590487430904	-14.93161043404436	43.64587621696449	21.17207628346417	89.9757140430096	-58.57501103349693	-24.99246549870371	40.47236073869927	-39.3564875933782	36.96814020512699	43.29348939845508	75.99534223686278	-5.837871672245314	-24.98323780598938
1748433532.445953	-2.445128021106882	-0.3239724628622693	-167.098216651105	0	0.9399999943917833	0	79.99999999525214	-7.000000001125469	0	79.99999999792263	1.396263401559207	0	0	0	79.99999999525214	-7.000000004501878	0	79.99999999802388	1.396263401560974	0	0	0	-6.904246938554171	0.9348801396455551	-1.754483898213481	42.53422846293926	-15.69438751445592	45.54929513478523	22.00363924983322	89.97760242052077	-58.04438328705213	-24.99257283396314	40.66049382732201	-39.76380151288695	37.81330578955697	44.54177815657071	77.40739502760017	-5.691129315813141	-24.98342662891912
1748433532.455953	-2.458452521154617	-0.3179146806254246	-167.096325689698	0	0.9399999943917833	0	79.99999999525214	-7.000000001125469	0	79.99999999792263	1.396263401559207	0	0	0	79.99999999525214	-7.000000004501878	0	79.99999999802388	1.396263401560974	0	0	0	-6.928122617385502	0.965055872095639	-1.780485878977059	43.32177442249803	-16.44737220678585	47.51436878169509	22.79067437915645	89.97918327279443	-57.49173940951573	-24.99266605068503	40.79538429237471	-40.13792539412847	38.61169153739726	45.71999740585403	78.73128191836946	-5.537599792513559	-24.98366425818923
